Static Calibration
version=1
nRows=22
nColumns=19
inDegrees=yes
endheader
time	ground_force1_vx	ground_force1_vy	ground_force1_vz	ground_force1_px	ground_force1_py	ground_force1_pz	ground_torque1_x	ground_torque1_y	ground_torque1_z	ground_force2_vx	ground_force2_vy	ground_force2_vz	ground_force2_px	ground_force2_py	ground_force2_pz	ground_torque2_x	ground_torque2_y	ground_torque2_z
2.250000	2.716988	645.077148	-1.055212	0.842144	0.000000	-0.242299	0.000012	-0.543039	-0.000001	-0.000000	-0.000000	0.000000	0.254000	0.000000	-0.232000	0.000000	0.000000	0.000000	
2.251000	3.434765	644.529236	-1.123789	0.842233	0.000000	-0.242629	0.000009	-0.666817	0.000031	-0.000000	-0.000000	0.000000	0.254000	0.000000	-0.232000	0.000000	0.000000	0.000000	
2.252000	2.904642	644.908203	-1.206690	0.842271	0.000000	-0.242273	0.000006	-0.517092	0.000023	-0.000000	-0.000000	0.000000	0.254000	0.000000	-0.232000	0.000000	0.000000	0.000000	
2.253000	3.117568	644.529297	-1.298715	0.842607	0.000000	-0.242365	0.000001	-0.647523	0.000015	-0.000000	-0.000000	0.000000	0.254000	0.000000	-0.232000	0.000000	0.000000	0.000000	
2.254000	3.293473	645.549500	-1.557231	0.842243	0.000000	-0.242320	0.000013	-0.574773	0.000008	-0.000000	-0.000000	0.000000	0.254000	0.000000	-0.232000	0.000000	0.000000	0.000000	
2.255000	3.059083	646.616089	-1.488554	0.842027	0.000000	-0.242510	0.000002	-0.573047	-0.000004	-0.000000	-0.000000	0.000000	0.254000	0.000000	-0.232000	0.000000	0.000000	0.000000	
2.256000	3.386459	647.008118	-0.818842	0.841942	0.000000	-0.242531	0.000006	-0.659929	0.000031	-0.000000	-0.000000	0.000000	0.254000	0.000000	-0.232000	0.000000	0.000000	0.000000	
2.257000	2.983349	647.410095	-1.516625	0.842027	0.000000	-0.242304	0.000015	-0.555076	0.000013	-0.000000	-0.000000	0.000000	0.254000	0.000000	-0.232000	0.000000	0.000000	0.000000	
2.258000	3.037648	647.058716	-1.404770	0.842140	0.000000	-0.242444	0.000010	-0.512730	0.000050	-0.000000	-0.000000	0.000000	0.254000	0.000000	-0.232000	0.000000	0.000000	0.000000	
2.259000	3.291481	645.690979	-1.312750	0.842381	0.000000	-0.242309	0.000007	-0.535367	0.000036	-0.000000	-0.000000	0.000000	0.254000	0.000000	-0.232000	0.000000	0.000000	0.000000	
2.260000	3.139770	646.613403	-1.221253	0.841989	0.000000	-0.242439	0.000008	-0.606758	0.000030	-0.000000	-0.000000	0.000000	0.254000	0.000000	-0.232000	0.000000	0.000000	0.000000	
2.261000	3.137455	646.687500	-1.048268	0.842123	0.000000	-0.242223	0.000001	-0.623780	0.000053	-0.000000	-0.000000	0.000000	0.254000	0.000000	-0.232000	0.000000	0.000000	0.000000	
2.262000	3.381441	648.697266	-1.288890	0.841863	0.000000	-0.242192	0.000014	-0.541877	0.000016	-0.000000	-0.000000	0.000000	0.254000	0.000000	-0.232000	0.000000	0.000000	0.000000	
2.263000	3.064584	645.843994	-1.387289	0.842119	0.000000	-0.242458	0.000004	-0.593806	-0.000012	-0.000000	-0.000000	0.000000	0.254000	0.000000	-0.232000	0.000000	0.000000	0.000000	
2.264000	3.447174	646.615112	-1.648165	0.841775	0.000000	-0.242317	0.000002	-0.533482	0.000032	-0.000000	-0.000000	0.000000	0.254000	0.000000	-0.232000	0.000000	0.000000	0.000000	
2.265000	3.408797	646.978699	-1.248862	0.842310	0.000000	-0.242273	0.000005	-0.623582	-0.000010	-0.000000	-0.000000	0.000000	0.254000	0.000000	-0.232000	0.000000	0.000000	0.000000	
2.266000	3.145867	645.398682	-1.465626	0.842254	0.000000	-0.242150	-0.000001	-0.593662	-0.000013	-0.000000	-0.000000	0.000000	0.254000	0.000000	-0.232000	0.000000	0.000000	0.000000	
2.267000	3.631410	646.882385	-1.406151	0.842248	0.000000	-0.242435	0.000017	-0.569609	0.000008	-0.000000	-0.000000	0.000000	0.254000	0.000000	-0.232000	0.000000	0.000000	0.000000	
2.268000	3.170989	647.029114	-1.311021	0.842102	0.000000	-0.242343	0.000013	-0.537197	0.000057	-0.000000	-0.000000	0.000000	0.254000	0.000000	-0.232000	0.000000	0.000000	0.000000	
2.269000	3.552684	646.390930	-1.059714	0.842254	0.000000	-0.242328	0.000008	-0.590660	0.000003	-0.000000	-0.000000	0.000000	0.254000	0.000000	-0.232000	0.000000	0.000000	0.000000	
2.270000	3.338167	647.362366	-0.955088	0.842235	0.000000	-0.242360	0.000017	-0.582083	0.000016	-0.000000	-0.000000	0.000000	0.254000	0.000000	-0.232000	0.000000	0.000000	0.000000	
2.271000	3.568441	645.429626	-0.702260	0.842274	0.000000	-0.242216	0.000007	-0.651979	-0.000001	-0.000000	-0.000000	0.000000	0.254000	0.000000	-0.232000	0.000000	0.000000	0.000000	
